<mxfile host="Electron" agent="Mozilla/5.0 (Windows NT 10.0; Win64; x64) AppleWebKit/537.36 (KHTML, like Gecko) draw.io/24.7.8 Chrome/128.0.6613.36 Electron/32.0.1 Safari/537.36" version="24.7.8">
  <diagram name="Page-1" id="2cc2dc42-3aac-f2a9-1cec-7a8b7cbee084">
    <mxGraphModel dx="1434" dy="956" grid="1" gridSize="10" guides="1" tooltips="1" connect="1" arrows="1" fold="1" page="1" pageScale="1" pageWidth="1100" pageHeight="850" background="none" math="0" shadow="0">
      <root>
        <mxCell id="0" />
        <mxCell id="1" parent="0" />
        <mxCell id="u52cNytf9pB5Nw0GOw8_-13" value="" style="strokeWidth=1;shadow=0;dashed=0;align=center;html=1;shape=mxgraph.mockup.containers.browserWindow;rSize=0;strokeColor=#666666;strokeColor2=#008cff;strokeColor3=#c4c4c4;mainText=,;recursiveResize=0;" parent="1" vertex="1">
          <mxGeometry x="60" y="10" width="1020" height="770" as="geometry" />
        </mxCell>
        <mxCell id="u52cNytf9pB5Nw0GOw8_-14" value="Page 1" style="strokeWidth=1;shadow=0;dashed=0;align=center;html=1;shape=mxgraph.mockup.containers.anchor;fontSize=17;fontColor=#666666;align=left;whiteSpace=wrap;" parent="u52cNytf9pB5Nw0GOw8_-13" vertex="1">
          <mxGeometry x="60" y="12" width="110" height="26" as="geometry" />
        </mxCell>
        <mxCell id="u52cNytf9pB5Nw0GOw8_-15" value="LMS HOME / MemberBorrowals" style="strokeWidth=1;shadow=0;dashed=0;align=center;html=1;shape=mxgraph.mockup.containers.anchor;rSize=0;fontSize=17;fontColor=#666666;align=left;" parent="u52cNytf9pB5Nw0GOw8_-13" vertex="1">
          <mxGeometry x="130" y="60" width="250" height="26" as="geometry" />
        </mxCell>
        <mxCell id="u52cNytf9pB5Nw0GOw8_-17" value="LMS" style="text;strokeColor=none;fillColor=none;html=1;fontSize=24;fontStyle=1;verticalAlign=middle;align=center;" parent="u52cNytf9pB5Nw0GOw8_-13" vertex="1">
          <mxGeometry x="60" y="140" width="100" height="40" as="geometry" />
        </mxCell>
        <mxCell id="9EujGWN3wRDiF9waKeuq-1" value="&lt;span style=&quot;font-weight: normal;&quot;&gt;&lt;font color=&quot;#cc6600&quot; style=&quot;font-size: 16px;&quot;&gt;Welcome member@lms.com&lt;/font&gt;&lt;/span&gt;" style="text;strokeColor=none;fillColor=none;html=1;fontSize=24;fontStyle=1;verticalAlign=middle;align=center;" parent="u52cNytf9pB5Nw0GOw8_-13" vertex="1">
          <mxGeometry x="520" y="140" width="430" height="40" as="geometry" />
        </mxCell>
        <mxCell id="9EujGWN3wRDiF9waKeuq-3" value="View Borrowals" style="html=1;shadow=0;dashed=0;shape=mxgraph.bootstrap.rrect;rSize=5;strokeColor=#CC6600;strokeWidth=1;fillColor=none;fontColor=#0085FC;whiteSpace=wrap;align=center;verticalAlign=middle;spacingLeft=0;fontStyle=0;fontSize=16;spacing=5;" parent="u52cNytf9pB5Nw0GOw8_-13" vertex="1">
          <mxGeometry x="60" y="220" width="130" height="40" as="geometry" />
        </mxCell>
        <mxCell id="9EujGWN3wRDiF9waKeuq-5" value="Manage Profile" style="html=1;shadow=0;dashed=0;shape=mxgraph.bootstrap.rrect;rSize=5;strokeColor=#0085FC;strokeWidth=1;fillColor=none;fontColor=#0085FC;whiteSpace=wrap;align=center;verticalAlign=middle;spacingLeft=0;fontStyle=0;fontSize=16;spacing=5;" parent="u52cNytf9pB5Nw0GOw8_-13" vertex="1">
          <mxGeometry x="210" y="220" width="130" height="40" as="geometry" />
        </mxCell>
        <mxCell id="9EujGWN3wRDiF9waKeuq-8" value="" style="swimlane;shape=mxgraph.bootstrap.anchor;strokeColor=#DEE2E6;fillColor=#ffffff;fontColor=#0085FC;fontStyle=0;childLayout=stackLayout;horizontal=0;startSize=0;horizontalStack=1;resizeParent=1;resizeParentMax=0;resizeLast=0;collapsible=0;marginBottom=0;whiteSpace=wrap;html=1;" parent="u52cNytf9pB5Nw0GOw8_-13" vertex="1">
          <mxGeometry x="340" y="670" width="220" height="30" as="geometry" />
        </mxCell>
        <mxCell id="9EujGWN3wRDiF9waKeuq-9" value="Previous" style="text;strokeColor=inherit;align=center;verticalAlign=middle;spacingLeft=5;spacingRight=5;overflow=hidden;points=[[0,0.5],[1,0.5]];portConstraint=eastwest;rotatable=0;whiteSpace=wrap;html=1;shape=mxgraph.bootstrap.leftButton;rSize=5;fillColor=inherit;fontColor=inherit;fontSize=14;" parent="9EujGWN3wRDiF9waKeuq-8" vertex="1">
          <mxGeometry width="70" height="30" as="geometry" />
        </mxCell>
        <mxCell id="9EujGWN3wRDiF9waKeuq-10" value="1" style="text;strokeColor=inherit;align=center;verticalAlign=middle;spacingLeft=5;spacingRight=5;overflow=hidden;points=[[0,0.5],[1,0.5]];portConstraint=eastwest;rotatable=0;whiteSpace=wrap;html=1;rSize=5;fillColor=inherit;fontColor=inherit;fontSize=14;" parent="9EujGWN3wRDiF9waKeuq-8" vertex="1">
          <mxGeometry x="70" width="30" height="30" as="geometry" />
        </mxCell>
        <mxCell id="9EujGWN3wRDiF9waKeuq-11" value="2" style="text;strokeColor=inherit;align=center;verticalAlign=middle;spacingLeft=5;spacingRight=5;overflow=hidden;points=[[0,0.5],[1,0.5]];portConstraint=eastwest;rotatable=0;whiteSpace=wrap;html=1;rSize=5;fillColor=inherit;fontColor=inherit;fontSize=14;" parent="9EujGWN3wRDiF9waKeuq-8" vertex="1">
          <mxGeometry x="100" width="30" height="30" as="geometry" />
        </mxCell>
        <mxCell id="9EujGWN3wRDiF9waKeuq-12" value="3" style="text;strokeColor=inherit;align=center;verticalAlign=middle;spacingLeft=5;spacingRight=5;overflow=hidden;points=[[0,0.5],[1,0.5]];portConstraint=eastwest;rotatable=0;whiteSpace=wrap;html=1;rSize=5;fillColor=inherit;fontColor=inherit;fontSize=14;" parent="9EujGWN3wRDiF9waKeuq-8" vertex="1">
          <mxGeometry x="130" width="30" height="30" as="geometry" />
        </mxCell>
        <mxCell id="9EujGWN3wRDiF9waKeuq-13" value="Next" style="text;strokeColor=inherit;align=center;verticalAlign=middle;spacingLeft=5;spacingRight=5;overflow=hidden;points=[[0,0.5],[1,0.5]];portConstraint=eastwest;rotatable=0;whiteSpace=wrap;html=1;shape=mxgraph.bootstrap.rightButton;rSize=5;fillColor=inherit;fontColor=inherit;fontSize=14;" parent="9EujGWN3wRDiF9waKeuq-8" vertex="1">
          <mxGeometry x="160" width="60" height="30" as="geometry" />
        </mxCell>
        <mxCell id="iBw1wyOpCf14qNwlmLOu-1" value="" style="shape=table;startSize=0;container=1;collapsible=0;childLayout=tableLayout;" vertex="1" parent="u52cNytf9pB5Nw0GOw8_-13">
          <mxGeometry x="75" y="330" width="835" height="200" as="geometry" />
        </mxCell>
        <mxCell id="iBw1wyOpCf14qNwlmLOu-2" value="" style="shape=tableRow;horizontal=0;startSize=0;swimlaneHead=0;swimlaneBody=0;strokeColor=inherit;top=0;left=0;bottom=0;right=0;collapsible=0;dropTarget=0;fillColor=none;points=[[0,0.5],[1,0.5]];portConstraint=eastwest;" vertex="1" parent="iBw1wyOpCf14qNwlmLOu-1">
          <mxGeometry width="835" height="40" as="geometry" />
        </mxCell>
        <mxCell id="iBw1wyOpCf14qNwlmLOu-3" value="Book" style="shape=partialRectangle;html=1;whiteSpace=wrap;connectable=0;strokeColor=inherit;overflow=hidden;fillColor=none;top=0;left=0;bottom=0;right=0;pointerEvents=1;" vertex="1" parent="iBw1wyOpCf14qNwlmLOu-2">
          <mxGeometry width="139" height="40" as="geometry">
            <mxRectangle width="139" height="40" as="alternateBounds" />
          </mxGeometry>
        </mxCell>
        <mxCell id="iBw1wyOpCf14qNwlmLOu-4" value="Author" style="shape=partialRectangle;html=1;whiteSpace=wrap;connectable=0;strokeColor=inherit;overflow=hidden;fillColor=none;top=0;left=0;bottom=0;right=0;pointerEvents=1;" vertex="1" parent="iBw1wyOpCf14qNwlmLOu-2">
          <mxGeometry x="139" width="139" height="40" as="geometry">
            <mxRectangle width="139" height="40" as="alternateBounds" />
          </mxGeometry>
        </mxCell>
        <mxCell id="iBw1wyOpCf14qNwlmLOu-5" value="Borrowal Date" style="shape=partialRectangle;html=1;whiteSpace=wrap;connectable=0;strokeColor=inherit;overflow=hidden;fillColor=none;top=0;left=0;bottom=0;right=0;pointerEvents=1;" vertex="1" parent="iBw1wyOpCf14qNwlmLOu-2">
          <mxGeometry x="278" width="140" height="40" as="geometry">
            <mxRectangle width="140" height="40" as="alternateBounds" />
          </mxGeometry>
        </mxCell>
        <mxCell id="iBw1wyOpCf14qNwlmLOu-6" value="Return Due Date" style="shape=partialRectangle;html=1;whiteSpace=wrap;connectable=0;strokeColor=inherit;overflow=hidden;fillColor=none;top=0;left=0;bottom=0;right=0;pointerEvents=1;" vertex="1" parent="iBw1wyOpCf14qNwlmLOu-2">
          <mxGeometry x="418" width="139" height="40" as="geometry">
            <mxRectangle width="139" height="40" as="alternateBounds" />
          </mxGeometry>
        </mxCell>
        <mxCell id="iBw1wyOpCf14qNwlmLOu-7" value="Overdue" style="shape=partialRectangle;html=1;whiteSpace=wrap;connectable=0;strokeColor=inherit;overflow=hidden;fillColor=none;top=0;left=0;bottom=0;right=0;pointerEvents=1;" vertex="1" parent="iBw1wyOpCf14qNwlmLOu-2">
          <mxGeometry x="557" width="139" height="40" as="geometry">
            <mxRectangle width="139" height="40" as="alternateBounds" />
          </mxGeometry>
        </mxCell>
        <mxCell id="iBw1wyOpCf14qNwlmLOu-8" value="Fine" style="shape=partialRectangle;html=1;whiteSpace=wrap;connectable=0;strokeColor=inherit;overflow=hidden;fillColor=none;top=0;left=0;bottom=0;right=0;pointerEvents=1;" vertex="1" parent="iBw1wyOpCf14qNwlmLOu-2">
          <mxGeometry x="696" width="139" height="40" as="geometry">
            <mxRectangle width="139" height="40" as="alternateBounds" />
          </mxGeometry>
        </mxCell>
        <mxCell id="iBw1wyOpCf14qNwlmLOu-9" value="" style="shape=tableRow;horizontal=0;startSize=0;swimlaneHead=0;swimlaneBody=0;strokeColor=inherit;top=0;left=0;bottom=0;right=0;collapsible=0;dropTarget=0;fillColor=none;points=[[0,0.5],[1,0.5]];portConstraint=eastwest;" vertex="1" parent="iBw1wyOpCf14qNwlmLOu-1">
          <mxGeometry y="40" width="835" height="40" as="geometry" />
        </mxCell>
        <mxCell id="iBw1wyOpCf14qNwlmLOu-10" value="" style="shape=partialRectangle;html=1;whiteSpace=wrap;connectable=0;strokeColor=inherit;overflow=hidden;fillColor=none;top=0;left=0;bottom=0;right=0;pointerEvents=1;" vertex="1" parent="iBw1wyOpCf14qNwlmLOu-9">
          <mxGeometry width="139" height="40" as="geometry">
            <mxRectangle width="139" height="40" as="alternateBounds" />
          </mxGeometry>
        </mxCell>
        <mxCell id="iBw1wyOpCf14qNwlmLOu-11" value="" style="shape=partialRectangle;html=1;whiteSpace=wrap;connectable=0;strokeColor=inherit;overflow=hidden;fillColor=none;top=0;left=0;bottom=0;right=0;pointerEvents=1;" vertex="1" parent="iBw1wyOpCf14qNwlmLOu-9">
          <mxGeometry x="139" width="139" height="40" as="geometry">
            <mxRectangle width="139" height="40" as="alternateBounds" />
          </mxGeometry>
        </mxCell>
        <mxCell id="iBw1wyOpCf14qNwlmLOu-12" value="" style="shape=partialRectangle;html=1;whiteSpace=wrap;connectable=0;strokeColor=inherit;overflow=hidden;fillColor=none;top=0;left=0;bottom=0;right=0;pointerEvents=1;" vertex="1" parent="iBw1wyOpCf14qNwlmLOu-9">
          <mxGeometry x="278" width="140" height="40" as="geometry">
            <mxRectangle width="140" height="40" as="alternateBounds" />
          </mxGeometry>
        </mxCell>
        <mxCell id="iBw1wyOpCf14qNwlmLOu-13" value="" style="shape=partialRectangle;html=1;whiteSpace=wrap;connectable=0;strokeColor=inherit;overflow=hidden;fillColor=none;top=0;left=0;bottom=0;right=0;pointerEvents=1;" vertex="1" parent="iBw1wyOpCf14qNwlmLOu-9">
          <mxGeometry x="418" width="139" height="40" as="geometry">
            <mxRectangle width="139" height="40" as="alternateBounds" />
          </mxGeometry>
        </mxCell>
        <mxCell id="iBw1wyOpCf14qNwlmLOu-14" value="Yes" style="shape=partialRectangle;html=1;whiteSpace=wrap;connectable=0;strokeColor=inherit;overflow=hidden;fillColor=none;top=0;left=0;bottom=0;right=0;pointerEvents=1;" vertex="1" parent="iBw1wyOpCf14qNwlmLOu-9">
          <mxGeometry x="557" width="139" height="40" as="geometry">
            <mxRectangle width="139" height="40" as="alternateBounds" />
          </mxGeometry>
        </mxCell>
        <mxCell id="iBw1wyOpCf14qNwlmLOu-15" value="&lt;div&gt;$10&lt;/div&gt;" style="shape=partialRectangle;html=1;whiteSpace=wrap;connectable=0;strokeColor=inherit;overflow=hidden;fillColor=none;top=0;left=0;bottom=0;right=0;pointerEvents=1;" vertex="1" parent="iBw1wyOpCf14qNwlmLOu-9">
          <mxGeometry x="696" width="139" height="40" as="geometry">
            <mxRectangle width="139" height="40" as="alternateBounds" />
          </mxGeometry>
        </mxCell>
        <mxCell id="iBw1wyOpCf14qNwlmLOu-16" value="" style="shape=tableRow;horizontal=0;startSize=0;swimlaneHead=0;swimlaneBody=0;strokeColor=inherit;top=0;left=0;bottom=0;right=0;collapsible=0;dropTarget=0;fillColor=none;points=[[0,0.5],[1,0.5]];portConstraint=eastwest;" vertex="1" parent="iBw1wyOpCf14qNwlmLOu-1">
          <mxGeometry y="80" width="835" height="40" as="geometry" />
        </mxCell>
        <mxCell id="iBw1wyOpCf14qNwlmLOu-17" value="" style="shape=partialRectangle;html=1;whiteSpace=wrap;connectable=0;strokeColor=inherit;overflow=hidden;fillColor=none;top=0;left=0;bottom=0;right=0;pointerEvents=1;" vertex="1" parent="iBw1wyOpCf14qNwlmLOu-16">
          <mxGeometry width="139" height="40" as="geometry">
            <mxRectangle width="139" height="40" as="alternateBounds" />
          </mxGeometry>
        </mxCell>
        <mxCell id="iBw1wyOpCf14qNwlmLOu-18" value="" style="shape=partialRectangle;html=1;whiteSpace=wrap;connectable=0;strokeColor=inherit;overflow=hidden;fillColor=none;top=0;left=0;bottom=0;right=0;pointerEvents=1;" vertex="1" parent="iBw1wyOpCf14qNwlmLOu-16">
          <mxGeometry x="139" width="139" height="40" as="geometry">
            <mxRectangle width="139" height="40" as="alternateBounds" />
          </mxGeometry>
        </mxCell>
        <mxCell id="iBw1wyOpCf14qNwlmLOu-19" value="" style="shape=partialRectangle;html=1;whiteSpace=wrap;connectable=0;strokeColor=inherit;overflow=hidden;fillColor=none;top=0;left=0;bottom=0;right=0;pointerEvents=1;" vertex="1" parent="iBw1wyOpCf14qNwlmLOu-16">
          <mxGeometry x="278" width="140" height="40" as="geometry">
            <mxRectangle width="140" height="40" as="alternateBounds" />
          </mxGeometry>
        </mxCell>
        <mxCell id="iBw1wyOpCf14qNwlmLOu-20" value="" style="shape=partialRectangle;html=1;whiteSpace=wrap;connectable=0;strokeColor=inherit;overflow=hidden;fillColor=none;top=0;left=0;bottom=0;right=0;pointerEvents=1;" vertex="1" parent="iBw1wyOpCf14qNwlmLOu-16">
          <mxGeometry x="418" width="139" height="40" as="geometry">
            <mxRectangle width="139" height="40" as="alternateBounds" />
          </mxGeometry>
        </mxCell>
        <mxCell id="iBw1wyOpCf14qNwlmLOu-21" value="No" style="shape=partialRectangle;html=1;whiteSpace=wrap;connectable=0;strokeColor=inherit;overflow=hidden;fillColor=none;top=0;left=0;bottom=0;right=0;pointerEvents=1;" vertex="1" parent="iBw1wyOpCf14qNwlmLOu-16">
          <mxGeometry x="557" width="139" height="40" as="geometry">
            <mxRectangle width="139" height="40" as="alternateBounds" />
          </mxGeometry>
        </mxCell>
        <mxCell id="iBw1wyOpCf14qNwlmLOu-22" value="0" style="shape=partialRectangle;html=1;whiteSpace=wrap;connectable=0;strokeColor=inherit;overflow=hidden;fillColor=none;top=0;left=0;bottom=0;right=0;pointerEvents=1;" vertex="1" parent="iBw1wyOpCf14qNwlmLOu-16">
          <mxGeometry x="696" width="139" height="40" as="geometry">
            <mxRectangle width="139" height="40" as="alternateBounds" />
          </mxGeometry>
        </mxCell>
        <mxCell id="iBw1wyOpCf14qNwlmLOu-23" value="" style="shape=tableRow;horizontal=0;startSize=0;swimlaneHead=0;swimlaneBody=0;strokeColor=inherit;top=0;left=0;bottom=0;right=0;collapsible=0;dropTarget=0;fillColor=none;points=[[0,0.5],[1,0.5]];portConstraint=eastwest;" vertex="1" parent="iBw1wyOpCf14qNwlmLOu-1">
          <mxGeometry y="120" width="835" height="40" as="geometry" />
        </mxCell>
        <mxCell id="iBw1wyOpCf14qNwlmLOu-24" value="" style="shape=partialRectangle;html=1;whiteSpace=wrap;connectable=0;strokeColor=inherit;overflow=hidden;fillColor=none;top=0;left=0;bottom=0;right=0;pointerEvents=1;" vertex="1" parent="iBw1wyOpCf14qNwlmLOu-23">
          <mxGeometry width="139" height="40" as="geometry">
            <mxRectangle width="139" height="40" as="alternateBounds" />
          </mxGeometry>
        </mxCell>
        <mxCell id="iBw1wyOpCf14qNwlmLOu-25" value="" style="shape=partialRectangle;html=1;whiteSpace=wrap;connectable=0;strokeColor=inherit;overflow=hidden;fillColor=none;top=0;left=0;bottom=0;right=0;pointerEvents=1;" vertex="1" parent="iBw1wyOpCf14qNwlmLOu-23">
          <mxGeometry x="139" width="139" height="40" as="geometry">
            <mxRectangle width="139" height="40" as="alternateBounds" />
          </mxGeometry>
        </mxCell>
        <mxCell id="iBw1wyOpCf14qNwlmLOu-26" value="" style="shape=partialRectangle;html=1;whiteSpace=wrap;connectable=0;strokeColor=inherit;overflow=hidden;fillColor=none;top=0;left=0;bottom=0;right=0;pointerEvents=1;" vertex="1" parent="iBw1wyOpCf14qNwlmLOu-23">
          <mxGeometry x="278" width="140" height="40" as="geometry">
            <mxRectangle width="140" height="40" as="alternateBounds" />
          </mxGeometry>
        </mxCell>
        <mxCell id="iBw1wyOpCf14qNwlmLOu-27" value="" style="shape=partialRectangle;html=1;whiteSpace=wrap;connectable=0;strokeColor=inherit;overflow=hidden;fillColor=none;top=0;left=0;bottom=0;right=0;pointerEvents=1;" vertex="1" parent="iBw1wyOpCf14qNwlmLOu-23">
          <mxGeometry x="418" width="139" height="40" as="geometry">
            <mxRectangle width="139" height="40" as="alternateBounds" />
          </mxGeometry>
        </mxCell>
        <mxCell id="iBw1wyOpCf14qNwlmLOu-28" value="" style="shape=partialRectangle;html=1;whiteSpace=wrap;connectable=0;strokeColor=inherit;overflow=hidden;fillColor=none;top=0;left=0;bottom=0;right=0;pointerEvents=1;" vertex="1" parent="iBw1wyOpCf14qNwlmLOu-23">
          <mxGeometry x="557" width="139" height="40" as="geometry">
            <mxRectangle width="139" height="40" as="alternateBounds" />
          </mxGeometry>
        </mxCell>
        <mxCell id="iBw1wyOpCf14qNwlmLOu-29" value="" style="shape=partialRectangle;html=1;whiteSpace=wrap;connectable=0;strokeColor=inherit;overflow=hidden;fillColor=none;top=0;left=0;bottom=0;right=0;pointerEvents=1;" vertex="1" parent="iBw1wyOpCf14qNwlmLOu-23">
          <mxGeometry x="696" width="139" height="40" as="geometry">
            <mxRectangle width="139" height="40" as="alternateBounds" />
          </mxGeometry>
        </mxCell>
        <mxCell id="iBw1wyOpCf14qNwlmLOu-30" value="" style="shape=tableRow;horizontal=0;startSize=0;swimlaneHead=0;swimlaneBody=0;strokeColor=inherit;top=0;left=0;bottom=0;right=0;collapsible=0;dropTarget=0;fillColor=none;points=[[0,0.5],[1,0.5]];portConstraint=eastwest;" vertex="1" parent="iBw1wyOpCf14qNwlmLOu-1">
          <mxGeometry y="160" width="835" height="40" as="geometry" />
        </mxCell>
        <mxCell id="iBw1wyOpCf14qNwlmLOu-31" value="" style="shape=partialRectangle;html=1;whiteSpace=wrap;connectable=0;strokeColor=inherit;overflow=hidden;fillColor=none;top=0;left=0;bottom=0;right=0;pointerEvents=1;" vertex="1" parent="iBw1wyOpCf14qNwlmLOu-30">
          <mxGeometry width="139" height="40" as="geometry">
            <mxRectangle width="139" height="40" as="alternateBounds" />
          </mxGeometry>
        </mxCell>
        <mxCell id="iBw1wyOpCf14qNwlmLOu-32" value="" style="shape=partialRectangle;html=1;whiteSpace=wrap;connectable=0;strokeColor=inherit;overflow=hidden;fillColor=none;top=0;left=0;bottom=0;right=0;pointerEvents=1;" vertex="1" parent="iBw1wyOpCf14qNwlmLOu-30">
          <mxGeometry x="139" width="139" height="40" as="geometry">
            <mxRectangle width="139" height="40" as="alternateBounds" />
          </mxGeometry>
        </mxCell>
        <mxCell id="iBw1wyOpCf14qNwlmLOu-33" value="" style="shape=partialRectangle;html=1;whiteSpace=wrap;connectable=0;strokeColor=inherit;overflow=hidden;fillColor=none;top=0;left=0;bottom=0;right=0;pointerEvents=1;" vertex="1" parent="iBw1wyOpCf14qNwlmLOu-30">
          <mxGeometry x="278" width="140" height="40" as="geometry">
            <mxRectangle width="140" height="40" as="alternateBounds" />
          </mxGeometry>
        </mxCell>
        <mxCell id="iBw1wyOpCf14qNwlmLOu-34" value="" style="shape=partialRectangle;html=1;whiteSpace=wrap;connectable=0;strokeColor=inherit;overflow=hidden;fillColor=none;top=0;left=0;bottom=0;right=0;pointerEvents=1;" vertex="1" parent="iBw1wyOpCf14qNwlmLOu-30">
          <mxGeometry x="418" width="139" height="40" as="geometry">
            <mxRectangle width="139" height="40" as="alternateBounds" />
          </mxGeometry>
        </mxCell>
        <mxCell id="iBw1wyOpCf14qNwlmLOu-35" value="" style="shape=partialRectangle;html=1;whiteSpace=wrap;connectable=0;strokeColor=inherit;overflow=hidden;fillColor=none;top=0;left=0;bottom=0;right=0;pointerEvents=1;" vertex="1" parent="iBw1wyOpCf14qNwlmLOu-30">
          <mxGeometry x="557" width="139" height="40" as="geometry">
            <mxRectangle width="139" height="40" as="alternateBounds" />
          </mxGeometry>
        </mxCell>
        <mxCell id="iBw1wyOpCf14qNwlmLOu-36" value="" style="shape=partialRectangle;html=1;whiteSpace=wrap;connectable=0;strokeColor=inherit;overflow=hidden;fillColor=none;top=0;left=0;bottom=0;right=0;pointerEvents=1;" vertex="1" parent="iBw1wyOpCf14qNwlmLOu-30">
          <mxGeometry x="696" width="139" height="40" as="geometry">
            <mxRectangle width="139" height="40" as="alternateBounds" />
          </mxGeometry>
        </mxCell>
      </root>
    </mxGraphModel>
  </diagram>
</mxfile>
